<svg width="18" height="18" viewBox="0 0 18 18" xmlns="http://www.w3.org/2000/svg" xmlns:xlink="http://www.w3.org/1999/xlink">
    <defs>
        <path id="5pyy4rrova" d="M0 0h18v18H0z"/>
    </defs>
    <g fill="none" fill-rule="evenodd">
        <mask id="zikt3uxzgb" fill="#fff">
            <use xlink:href="#5pyy4rrova"/>
        </mask>
        <path d="m12.514 9 4.773-4.774a2.45 2.45 0 0 0 0-3.454L17.23.713a2.45 2.45 0 0 0-3.456 0L9 5.487 4.226.713a2.45 2.45 0 0 0-3.455 0L.713.771a2.45 2.45 0 0 0 0 3.454L5.486 9 .713 13.773a2.45 2.45 0 0 0 0 3.455l.058.06c.95.95 2.505.95 3.455 0L9 12.513l4.773 4.775c.95.95 2.506.95 3.456 0l.058-.06a2.45 2.45 0 0 0 0-3.455L12.514 9z" fill="#F4D56F" mask="url(#zikt3uxzgb)"/>
    </g>
</svg>
