<svg width="222.292" height="55" viewBox="0 0 222.292 55" xmlns="http://www.w3.org/2000/svg">
    <g fill="#F4D56F" fill-rule="nonzero">
        <path d="m45.744 8.487.281 1.765c.211 1.623.317 3.247.282 4.905a46.23 46.23 0 0 1-1.265 10.764 41.752 41.752 0 0 1-5.797 13.41c-3.127 4.658-7.66 9.21-14.23 12.952l-.808.458-.808-.458c-6.57-3.67-11.102-8.258-14.229-12.952-2.74-4.094-4.673-8.61-5.797-13.41a46.23 46.23 0 0 1-1.265-10.764c0-1.623.07-3.282.281-4.905l.246-1.765a.864.864 0 0 0 0-.423c-.035-.141-.07-.282-.176-.388a1.072 1.072 0 0 0-.28-.283c-.106-.07-.247-.106-.352-.14a.853.853 0 0 0-.422 0c-.14.034-.28.105-.386.176-.106.07-.21.176-.281.282-.07.141-.106.282-.14.423L.315 9.9A43.56 43.56 0 0 0 0 15.157c0 3.812.457 7.588 1.335 11.293a44.886 44.886 0 0 0 2.424 7.34 42.164 42.164 0 0 0 3.69 6.776c3.302 4.94 8.08 9.776 14.966 13.587l1.3.741c.176.07.352.106.527.106.176 0 .352-.035.527-.106l1.3-.741c6.852-3.847 11.665-8.681 14.967-13.587A42.75 42.75 0 0 0 47.15 26.45a48.853 48.853 0 0 0 1.3-11.293c0-1.764-.106-3.529-.316-5.293l-.282-1.765a1.996 1.996 0 0 0-.14-.423 1.072 1.072 0 0 0-.281-.283 1.296 1.296 0 0 0-.387-.176.853.853 0 0 0-.421 0c-.14.035-.281.07-.422.141-.105.07-.21.176-.28.282-.071.106-.141.247-.177.389v.458z"/>
        <path d="m8.538 7.287 15.74-4.975 16.056 5.081c.14.036.28.036.421.036.14 0 .281-.036.422-.106a.893.893 0 0 0 .351-.283.568.568 0 0 0 .176-.388c.035-.14.035-.282.035-.423a.943.943 0 0 0-.105-.424 1.268 1.268 0 0 0-.246-.353.563.563 0 0 0-.387-.176L24.594.053a.97.97 0 0 0-.633 0L7.941 5.135c-.141.035-.247.106-.387.176-.106.106-.211.212-.246.353a.943.943 0 0 0-.106.424c0 .14 0 .282.036.423.035.141.105.282.175.388.07.106.211.212.352.283.105.07.246.105.421.105.07.036.211.036.352 0z"/>
        <path d="M.773 8.805 23.293 54.4c.071.177.212.318.352.424.351.211.773.211 1.124 0 .176-.106.317-.247.422-.424l13.737-26.644.036-.035L47.747 8.77a.943.943 0 0 0 .105-.424c0-.141 0-.282-.07-.423a.842.842 0 0 0-.21-.389c-.07-.105-.211-.211-.317-.282a.747.747 0 0 0-.421-.106c-.141 0-.282 0-.422.036a.836.836 0 0 0-.387.211c-.105.106-.21.212-.245.353l-8.784 18.951-12.789 24.81L2.635 7.746c-.07-.107-.176-.248-.246-.354a.836.836 0 0 0-.386-.211.585.585 0 0 0-.422-.036.932.932 0 0 0-.422.106c-.105.07-.246.177-.316.282-.07.106-.14.248-.175.389-.036.14-.07.282-.036.423.036.177.07.318.14.459z"/>
        <path d="M11.56 29.132h25.085c.14 0 .28-.035.421-.07a.561.561 0 0 0 .317-.247.733.733 0 0 0 .21-.353 1.174 1.174 0 0 0 0-.847c-.035-.141-.14-.247-.21-.353a1.932 1.932 0 0 0-.317-.247 1.756 1.756 0 0 0-.421-.07H11.559c-.14 0-.281.034-.422.07a.561.561 0 0 0-.316.247.733.733 0 0 0-.21.353 1.174 1.174 0 0 0 0 .847.733.733 0 0 0 .21.353c.106.105.211.176.316.247.141.035.282.035.422.07zm69.916-9.493H65.173c-.14 0-.28.035-.421.07a.561.561 0 0 0-.316.248.733.733 0 0 0-.211.353c-.035.14-.07.282-.07.423V34.32c0 .141.035.282.07.423a.733.733 0 0 0 .21.353c.106.106.211.177.317.247.14.036.28.07.421.07h16.303v2.295H65.173c-.21 0-.421-.036-.632-.07-.21-.036-.422-.107-.632-.177a2.796 2.796 0 0 1-.562-.283c-.176-.14-.317-.282-.492-.423-.317-.318-.527-.67-.703-1.059a4.282 4.282 0 0 1-.176-.635 3.905 3.905 0 0 1-.07-.635V20.768c0-.211.035-.423.07-.635.035-.212.106-.423.176-.635.07-.212.176-.424.281-.6.105-.176.246-.353.422-.494.14-.141.316-.282.492-.424.175-.105.35-.211.562-.282.21-.07.421-.141.632-.176.21-.036.422-.07.632-.07h16.303v2.187zm30.601-2.294v2.294H96.372v6.74h12.614v2.33H96.372v6.74h15.705v2.294H94.194V17.345h17.883zM144.436 20.804v5.964c0 .211-.035.423-.07.635a4.282 4.282 0 0 1-.176.635c-.07.212-.176.424-.281.6-.14.177-.246.353-.422.494-.14.141-.316.283-.492.424-.176.106-.351.211-.562.282l-.632.212c-.211.035-.422.07-.633.07h-2.986l6.148 7.588h-2.951l-6.113-7.588h-7.168a5.34 5.34 0 0 1-1.054-.106v7.694h-2.213V17.38h16.372c.211 0 .422.036.633.071.21.035.421.106.632.177.211.07.387.176.562.317.352.247.633.565.879.918.105.176.21.388.28.6.071.211.141.423.176.635.036.247.07.494.07.706zm-16.373 7.058h13.105c.14 0 .281-.036.422-.07a.447.447 0 0 0 .316-.248.733.733 0 0 0 .21-.353c.036-.141.071-.282.071-.423v-5.964c0-.283-.105-.565-.281-.777a.987.987 0 0 0-.738-.353h-13.105c-.14 0-.28.036-.421.07a.561.561 0 0 0-.317.248.733.733 0 0 0-.21.353c-.036.141-.07.282-.07.423v5.964c0 .283.105.565.35.777.141.212.422.353.668.353zM156.17 17.345h19.605v2.294h-8.678v18.069h-2.213V19.639h-8.714v-2.294zm31.55 20.398V17.38h2.214v20.363h-2.213zm31.692-20.398h2.845l-8.186 10.2 8.221 10.198h-2.88l-7.308-9.034h-6.324v9.034h-2.214V17.38h2.249v9.035h6.324l7.273-9.07z"/>
    </g>
</svg>
