<svg width="174" height="42" viewBox="0 0 174 42" xmlns="http://www.w3.org/2000/svg">
    <defs>
        <linearGradient x1="80.303%" y1="50%" x2="142.563%" y2="50%" id="swig1wcuha">
            <stop stop-color="#8CD903" offset="0%"/>
            <stop stop-color="#FB0401" offset="100%"/>
        </linearGradient>
        <linearGradient x1="-88.301%" y1="50%" x2="637.668%" y2="50%" id="06fb3ush7b">
            <stop stop-color="#8CD903" offset="0%"/>
            <stop stop-color="#FB0401" offset="100%"/>
        </linearGradient>
        <linearGradient x1="-21.58%" y1="50%" x2="68.986%" y2="50%" id="v1c1nhrfmc">
            <stop stop-color="#8CD903" offset="0%"/>
            <stop stop-color="#FB0401" offset="100%"/>
        </linearGradient>
        <linearGradient x1="-188.804%" y1="50%" x2="0%" y2="50%" id="3qrxrf9wxd">
            <stop stop-color="#8CD903" offset="0%"/>
            <stop stop-color="#FB0401" offset="100%"/>
        </linearGradient>
        <linearGradient x1="110.607%" y1="50%" x2="156.597%" y2="50%" id="9bhe36uyke">
            <stop stop-color="#8CD903" offset="0%"/>
            <stop stop-color="#FB0401" offset="100%"/>
        </linearGradient>
    </defs>
    <g fill="none" fill-rule="evenodd">
        <path d="M34.925 33.862c1.55 0 2.916-.314 4.1-.942 1.185-.628 2.102-1.509 2.752-2.642.649-1.132.974-2.439.974-3.92V10.445a.386.386 0 0 0-.12-.286.399.399 0 0 0-.29-.118h-3.999c-.114 0-.21.04-.29.118a.386.386 0 0 0-.12.286v16.15c0 .965-.273 1.739-.82 2.322-.547.583-1.276.875-2.187.875-.911 0-1.64-.292-2.187-.875-.547-.583-.82-1.357-.82-2.322v-16.15a.386.386 0 0 0-.12-.286.399.399 0 0 0-.29-.118h-3.999c-.113 0-.21.04-.29.118a.386.386 0 0 0-.12.286v15.915c0 1.48.325 2.787.974 3.92.65 1.132 1.567 2.013 2.751 2.64 1.185.629 2.552.943 4.101.943zm14.297-.27c.114 0 .211-.039.29-.117a.386.386 0 0 0 .12-.286V24.44c0-.112.057-.168.171-.168h3.691c1.367 0 2.58-.292 3.64-.875a6.099 6.099 0 0 0 2.46-2.473c.58-1.066.871-2.294.871-3.685 0-1.413-.29-2.669-.871-3.768a6.24 6.24 0 0 0-2.46-2.557c-1.06-.606-2.273-.909-3.64-.909h-8.27c-.114 0-.21.04-.29.118a.386.386 0 0 0-.12.286V33.19c0 .112.04.207.12.286.08.078.176.118.29.118h3.998zm3.486-13.088h-2.905c-.114 0-.17-.056-.17-.168V14.28c0-.113.056-.169.17-.169h2.905c.889 0 1.6.292 2.136.875.535.583.803 1.368.803 2.355 0 .965-.268 1.733-.803 2.305-.535.572-1.247.858-2.136.858z" fill="url(#swig1wcuha)"/>
        <path d="M59.72 34.51c.107 0 .173-.053.197-.158l2.107-8.129c.017-.065.01-.115-.018-.152-.029-.036-.076-.054-.142-.054h-2.058c-.106 0-.172.056-.197.17l-.85 4.707c-.008.032-.023.048-.043.048-.02 0-.035-.016-.043-.048l-.875-4.707c-.025-.114-.095-.17-.21-.17H55.47c-.115 0-.172.048-.172.145 0 .025.004.045.012.061l2.082 8.129c.025.105.09.157.197.157h2.132zm5.192.096c.895 0 1.616-.226 2.162-.679.546-.453.82-1.068.82-1.844 0-.429-.09-.79-.272-1.086a2.344 2.344 0 0 0-.665-.716c-.263-.182-.612-.39-1.047-.625a5.937 5.937 0 0 1-.37-.194c-.542-.25-.906-.447-1.09-.588-.185-.142-.278-.301-.278-.48 0-.161.056-.288.167-.381a.658.658 0 0 1 .437-.14c.238 0 .43.069.573.206a.638.638 0 0 1 .216.473v.17c0 .057.016.101.049.134a.185.185 0 0 0 .135.048h1.91a.185.185 0 0 0 .136-.048.179.179 0 0 0 .05-.134v-.194c0-.51-.13-.962-.389-1.359a2.57 2.57 0 0 0-1.078-.922c-.46-.218-.982-.327-1.565-.327-.567 0-1.07.103-1.51.31-.439.205-.784.497-1.034.873-.251.376-.376.81-.376 1.304 0 .501.123.932.37 1.292.246.36.537.649.874.867.337.219.735.437 1.195.655l.296.146c.378.17.635.305.77.406a.46.46 0 0 1 .204.383c0 .13-.05.244-.148.345-.099.102-.25.152-.456.152-.255 0-.458-.065-.61-.194a.588.588 0 0 1-.228-.461v-.17a.179.179 0 0 0-.05-.133.185.185 0 0 0-.135-.049h-1.91a.185.185 0 0 0-.135.049.179.179 0 0 0-.05.133v.28c0 .493.126.927.376 1.303.25.376.604.67 1.06.88.456.21.988.315 1.596.315z" fill="url(#06fb3ush7b)"/>
        <path d="M79.502 33.593c1.527 0 2.877-.28 4.05-.842 1.173-.56 2.079-1.357 2.717-2.388.638-1.032.956-2.232.956-3.6V16.87c0-1.368-.318-2.568-.956-3.6-.638-1.032-1.544-1.828-2.717-2.389-1.173-.56-2.523-.84-4.05-.84h-7.347c-.114 0-.21.038-.29.117a.386.386 0 0 0-.12.286v22.745c0 .112.04.207.12.286.08.078.176.118.29.118h7.347zm-2.768-4.072c-.114 0-.17-.056-.17-.168V14.28c0-.113.056-.169.17-.169h2.803c.865 0 1.56.297 2.084.892.524.594.786 1.396.786 2.406v8.815c-.023.987-.296 1.778-.82 2.372-.524.595-1.208.892-2.05.892l-2.803.033zm20.302 4.374c1.572 0 2.961-.314 4.169-.942 1.207-.628 2.141-1.514 2.802-2.658.66-1.144.991-2.478.991-4.004v-8.95c0-1.503-.33-2.826-.99-3.97-.662-1.144-1.596-2.03-2.803-2.658-1.208-.628-2.597-.942-4.17-.942-1.571 0-2.955.314-4.151.942a6.79 6.79 0 0 0-2.785 2.658c-.661 1.144-.991 2.467-.991 3.97v8.95c0 1.526.33 2.86.99 4.004a6.79 6.79 0 0 0 2.786 2.658c1.196.628 2.58.942 4.152.942zm0-4.07c-.934 0-1.686-.31-2.256-.926-.57-.617-.854-1.419-.854-2.406v-9.286c0-1.01.285-1.823.854-2.44.57-.616 1.322-.925 2.256-.925.957 0 1.72.309 2.29.925.569.617.854 1.43.854 2.44v9.286c0 .987-.285 1.79-.855 2.406-.57.617-1.332.925-2.29.925zm18.49 3.768c.273 0 .421-.124.444-.37l2.495-13.526c.023-.068.057-.101.102-.101.046 0 .08.033.103.1l2.768 13.527c.046.246.194.37.444.37h3.862c.25 0 .398-.124.444-.37l4.99-22.746c.068-.291-.046-.437-.342-.437h-4.033c-.273 0-.421.123-.444.37l-2.46 12.92c-.023.068-.058.101-.103.101-.046 0-.08-.033-.103-.1l-2.733-12.92c-.046-.248-.194-.37-.445-.37h-3.793c-.273 0-.421.122-.444.37l-2.495 12.92c-.023.067-.057.1-.102.1-.046 0-.08-.033-.103-.1l-2.597-12.92c-.023-.248-.17-.37-.444-.37h-4.204c-.25 0-.375.1-.375.302v.134l5.365 22.78c.068.223.216.336.444.336h3.759zm21.6 0c.114 0 .21-.04.29-.118a.386.386 0 0 0 .12-.286l-.034-13.56c0-.09.023-.134.068-.134.046 0 .091.033.137.1l6.527 13.695c.091.202.25.303.478.303h4.17c.113 0 .21-.04.29-.118a.386.386 0 0 0 .12-.286V10.444a.386.386 0 0 0-.12-.286.399.399 0 0 0-.29-.118h-3.965c-.113 0-.21.04-.29.118a.386.386 0 0 0-.12.286v13.56c0 .09-.022.134-.068.134-.046 0-.091-.034-.137-.101l-6.527-13.694a.484.484 0 0 0-.478-.303h-4.135c-.114 0-.21.04-.29.118a.386.386 0 0 0-.12.286v22.745c0 .112.04.207.12.286.08.078.176.118.29.118h3.964z" fill="url(#v1c1nhrfmc)"/>
        <path d="M152.27 34.44a1.085 1.085 0 0 0 1.112-1.094c0-.326-.105-.59-.314-.792-.209-.202-.475-.303-.798-.303-.323 0-.59.101-.799.303-.209.202-.313.466-.313.792 0 .318.104.58.313.786.21.206.476.309.799.309zm4.779 0c.576 0 1.084-.108 1.526-.325a2.426 2.426 0 0 0 1.029-.932c.244-.404.367-.87.367-1.398a.172.172 0 0 0-.048-.128.177.177 0 0 0-.13-.046l-1.869-.082c-.118 0-.177.054-.177.163v.14c0 .225-.063.404-.19.536a.67.67 0 0 1-.508.198.68.68 0 0 1-.515-.204.734.734 0 0 1-.195-.53V28.71c0-.217.065-.394.195-.53a.68.68 0 0 1 .515-.203.67.67 0 0 1 .509.198c.126.132.189.31.189.535v.129c0 .108.059.163.177.163l1.87-.082a.166.166 0 0 0 .13-.052.192.192 0 0 0 .047-.134c0-.528-.123-.99-.367-1.386a2.458 2.458 0 0 0-1.023-.92c-.438-.218-.949-.326-1.532-.326-.584 0-1.096.11-1.538.331a2.44 2.44 0 0 0-1.03.95c-.244.411-.366.889-.366 1.432v2.877c0 .551.122 1.035.367 1.45.244.415.587.736 1.03.961.44.225.953.338 1.537.338zm6.459.024c.591 0 1.112-.116 1.561-.35.45-.232.798-.56 1.047-.984.248-.423.373-.914.373-1.473v-2.772c0-.559-.123-1.048-.367-1.467a2.47 2.47 0 0 0-1.047-.973c-.454-.229-.976-.343-1.567-.343-.592 0-1.112.114-1.562.343-.45.23-.796.553-1.04.973-.245.419-.368.908-.368 1.467v2.772c0 .56.123 1.05.367 1.473.245.424.592.752 1.041.985.45.233.97.349 1.562.349zm0-1.875c-.221 0-.4-.078-.539-.233-.138-.155-.207-.361-.207-.617v-2.912c0-.256.07-.462.207-.617a.686.686 0 0 1 .539-.233.7.7 0 0 1 .55.233c.138.155.207.36.207.617v2.912c0 .256-.07.462-.207.617a.7.7 0 0 1-.55.233zm5.678 1.759a.177.177 0 0 0 .13-.047.172.172 0 0 0 .047-.128v-4.484c0-.031.01-.05.03-.058.02-.008.037.003.053.034l.757 1.247a.233.233 0 0 0 .213.116h.307a.233.233 0 0 0 .213-.116l.757-1.235c.016-.03.034-.043.054-.035.02.008.03.027.03.058v4.473c0 .054.015.097.046.128a.177.177 0 0 0 .13.047h1.87a.177.177 0 0 0 .13-.047.172.172 0 0 0 .047-.128v-7.804a.172.172 0 0 0-.047-.128.177.177 0 0 0-.13-.046h-1.846c-.102 0-.173.039-.213.116l-1.135 1.934c-.008.023-.022.035-.042.035-.02 0-.037-.012-.053-.035l-1.16-1.934a.233.233 0 0 0-.212-.116h-1.845a.177.177 0 0 0-.13.046.172.172 0 0 0-.048.128v7.804c0 .054.016.097.047.128a.177.177 0 0 0 .13.047h1.87z" fill="url(#3qrxrf9wxd)"/>
        <path d="M9.906 13.618c1.032 0 1.869.824 1.869 1.84s-.837 1.84-1.869 1.84-1.87-.824-1.87-1.84.838-1.84 1.87-1.84zM10.779.39l8.598 7.53c.159.14.257.399.257.678v6.117c0 .603-.43.98-.773.678l-8.082-7.079c-.595-.52-1.328-.52-1.923 0l-8.082 7.08c-.344.3-.774-.076-.774-.679V8.6c0-.28.098-.537.258-.677L8.856.39c.595-.521 1.328-.521 1.923 0zm8.855 26.893V33.4c0 .28-.098.537-.258.677L10.78 41.61c-.596.521-1.329.521-1.924 0l-8.597-7.53C.098 33.938 0 33.68 0 33.4v-6.117c0-.603.43-.98.774-.678l8.081 7.079c.595.52 1.328.52 1.924 0l8.081-7.08c.344-.3.774.076.774.679zm-9.728-2.625c1.032 0 1.869.824 1.869 1.84 0 1.017-.837 1.84-1.869 1.84s-1.87-.823-1.87-1.84c0-1.016.838-1.84 1.87-1.84zm0-1.84c1.032 0 1.869-.824 1.869-1.84s-.837-1.84-1.869-1.84-1.87.824-1.87 1.84.838 1.84 1.87 1.84z" fill="url(#9bhe36uyke)"/>
    </g>
</svg>
