<?xml version="1.0" encoding="UTF-8"?>
<svg width="35px" height="29px" viewBox="0 0 35 29" version="1.1" xmlns="http://www.w3.org/2000/svg" xmlns:xlink="http://www.w3.org/1999/xlink">
    <title>9D0DB000-D59D-4078-875A-8E310CE38CF5</title>
    <g id="Main" stroke="none" stroke-width="1" fill="none" fill-rule="evenodd">
        <g id="66" transform="translate(-931, -199)" fill="#000000" fill-rule="nonzero">
            <path d="M965.70894,206.323232 L958.650728,199.219697 C958.359667,198.926768 957.923077,198.926768 957.632017,199.219697 L955.158004,201.709596 C954.794179,202.075758 954.430353,202.295455 953.993763,202.515152 C953.993763,202.515152 953.993763,202.515152 953.993763,202.515152 L952.392931,202.075758 C950.93763,201.709596 949.409563,201.782828 948.027027,202.295455 C947.081081,202.661616 946.2079,203.174242 945.480249,203.906566 C945.116424,203.760101 944.752599,203.686869 944.461538,203.613636 C943.442827,203.467172 942.496881,202.954545 941.769231,202.222222 L939.295218,199.732323 C939.149688,199.585859 939.004158,199.512626 938.785863,199.512626 C938.567568,199.512626 938.422037,199.585859 938.276507,199.732323 L931.218295,206.835859 C930.927235,207.128788 930.927235,207.568182 931.218295,207.861111 L933.692308,210.35101 C934.419958,211.083333 934.929314,212.035354 935.074844,213.060606 C935.220374,213.866162 935.511435,214.671717 935.87526,215.330808 L935.002079,216.356061 C934.128898,217.454545 934.274428,219.065657 935.365904,219.944444 C935.802495,220.310606 936.384615,220.530303 936.966736,220.530303 C937.039501,220.530303 937.112266,220.530303 937.257796,220.530303 C937.330561,221.189394 937.621622,221.848485 938.203742,222.287879 C938.640333,222.65404 939.222453,222.873737 939.804574,222.873737 C939.877339,222.873737 939.950104,222.873737 940.095634,222.873737 C940.168399,223.532828 940.459459,224.191919 941.04158,224.631313 C941.47817,224.997475 942.060291,225.217172 942.642412,225.217172 C942.715177,225.217172 942.787942,225.217172 942.933472,225.217172 C942.933472,225.217172 942.933472,225.217172 942.933472,225.217172 C943.006237,225.876263 943.297297,226.462121 943.879418,226.901515 C944.316008,227.267677 944.898129,227.487374 945.480249,227.487374 C946.06237,227.487374 946.644491,227.267677 947.081081,226.901515 L947.372141,227.194444 C947.881497,227.707071 948.609148,228 949.264033,228 C949.846154,228 950.428274,227.780303 950.93763,227.340909 C951.37422,226.901515 951.665281,226.388889 951.738046,225.80303 C951.883576,225.80303 952.029106,225.876263 952.174636,225.876263 C952.829522,225.876263 953.484407,225.583333 953.920998,225.143939 C954.212058,224.85101 954.430353,224.558081 954.503119,224.191919 C954.939709,224.484848 955.449064,224.631313 955.95842,224.631313 C956.613306,224.631313 957.268191,224.411616 957.704782,223.89899 C958.214137,223.386364 958.432432,222.727273 958.432432,222.068182 C958.432432,222.068182 958.432432,222.068182 958.505198,222.068182 C959.087318,222.068182 959.669439,221.848485 960.178794,221.409091 C960.68815,220.969697 960.97921,220.310606 960.97921,219.578283 C960.97921,218.919192 960.760915,218.186869 960.251559,217.747475 L959.523909,217.015152 L960.324324,216.209596 C961.27027,215.257576 961.925156,214.012626 962.143451,212.694444 C962.288981,211.669192 962.798337,210.717172 963.525988,209.984848 L966,207.494949 C966,207.055556 966,206.616162 965.70894,206.323232 Z M936.31185,218.84596 C935.87526,218.479798 935.802495,217.820707 936.16632,217.381313 L938.349272,214.744949 C938.567568,214.525253 938.858628,214.378788 939.149688,214.378788 C939.367983,214.378788 939.659044,214.45202 939.804574,214.598485 C940.241164,214.964646 940.313929,215.623737 939.950104,216.063131 L937.767152,218.699495 C937.476091,219.138889 936.748441,219.212121 936.31185,218.84596 Z M939.076923,221.116162 C938.640333,220.75 938.567568,220.090909 938.931393,219.651515 L941.114345,217.015152 C941.114345,217.015152 941.114345,217.015152 941.114345,217.015152 L942.278586,215.623737 C942.496881,215.40404 942.787942,215.257576 943.079002,215.257576 C943.297297,215.257576 943.588358,215.330808 943.733888,215.477273 C943.952183,215.623737 944.097713,215.916667 944.097713,216.209596 C944.097713,216.502525 944.024948,216.795455 943.879418,217.015152 L943.515593,217.454545 C943.515593,217.454545 943.515593,217.454545 943.515593,217.454545 L940.60499,221.042929 C940.241164,221.409091 939.513514,221.482323 939.076923,221.116162 Z M941.841996,223.459596 C941.623701,223.313131 941.47817,223.020202 941.47817,222.727273 C941.47817,222.434343 941.550936,222.141414 941.696466,221.921717 L944.607069,218.333333 C944.825364,218.113636 945.116424,217.967172 945.407484,217.967172 C945.62578,217.967172 945.91684,218.040404 946.06237,218.186869 C946.280665,218.333333 946.426195,218.626263 946.426195,218.919192 C946.426195,219.212121 946.35343,219.505051 946.2079,219.724747 L943.297297,223.313131 C943.006237,223.679293 942.278586,223.752525 941.841996,223.459596 Z M944.607069,225.729798 C944.388773,225.583333 944.243243,225.290404 944.243243,224.997475 C944.243243,224.704545 944.316008,224.411616 944.461538,224.191919 L946.644491,221.555556 C946.862786,221.335859 947.153846,221.189394 947.444906,221.189394 C947.663202,221.189394 947.954262,221.262626 948.099792,221.409091 C948.318087,221.555556 948.463617,221.848485 948.463617,222.141414 C948.463617,222.434343 948.390852,222.727273 948.245322,222.94697 L946.06237,225.583333 C945.77131,226.022727 945.043659,226.09596 944.607069,225.729798 Z M949.700624,226.169192 C949.264033,226.535354 948.609148,226.462121 948.172557,226.022727 L947.881497,225.729798 L949.191268,224.045455 L949.773389,224.631313 C949.991684,224.85101 950.064449,225.143939 950.064449,225.436869 C950.064449,225.656566 949.918919,225.949495 949.700624,226.169192 Z M959.014553,220.164141 C958.577963,220.530303 957.923077,220.457071 957.486486,220.017677 L949.991684,212.54798 C949.700624,212.255051 949.264033,212.255051 948.972973,212.54798 C948.681913,212.840909 948.681913,213.280303 948.972973,213.573232 L956.467775,221.116162 C956.467775,221.116162 956.467775,221.116162 956.467775,221.116162 L956.540541,221.189394 C956.977131,221.628788 956.977131,222.287879 956.540541,222.727273 C956.10395,223.166667 955.449064,223.166667 955.012474,222.727273 L952.174636,219.871212 L947.444906,215.111111 C947.153846,214.818182 946.717256,214.818182 946.426195,215.111111 C946.426195,215.111111 946.426195,215.111111 946.426195,215.111111 C946.426195,215.111111 946.426195,215.111111 946.426195,215.111111 C946.135135,215.40404 946.135135,215.843434 946.426195,216.136364 L951.155925,220.896465 L952.756757,222.507576 C952.975052,222.727273 953.047817,222.94697 953.047817,223.239899 C953.047817,223.532828 952.902287,223.825758 952.756757,223.972222 C952.320166,224.411616 951.665281,224.411616 951.22869,223.972222 L949.918919,222.65404 C949.991684,222.434343 949.991684,222.214646 949.991684,221.921717 C949.918919,221.262626 949.627859,220.676768 949.045738,220.237374 C948.681913,219.944444 948.318087,219.79798 947.881497,219.724747 C947.954262,219.431818 948.027027,219.065657 947.954262,218.772727 C947.881497,218.113636 947.590437,217.527778 947.008316,217.088384 C946.571726,216.722222 946.06237,216.575758 945.553015,216.502525 C945.553015,216.356061 945.553015,216.209596 945.553015,216.063131 C945.480249,215.40404 945.189189,214.818182 944.607069,214.378788 C944.170478,214.012626 943.588358,213.792929 943.006237,213.792929 C942.424116,213.792929 941.841996,214.012626 941.405405,214.378788 C941.259875,214.012626 941.04158,213.719697 940.75052,213.426768 C940.313929,213.060606 939.731809,212.840909 939.149688,212.840909 C938.422037,212.840909 937.694387,213.207071 937.185031,213.792929 L936.893971,214.159091 C936.675676,213.719697 936.602911,213.280303 936.530146,212.840909 C936.31185,211.522727 935.656965,210.277778 934.711019,209.325758 L932.746362,207.348485 L938.785863,201.270202 L940.75052,203.247475 C941.696466,204.199495 942.933472,204.858586 944.243243,205.078283 C944.243243,205.078283 944.243243,205.078283 944.243243,205.078283 L941.33264,207.787879 C940.89605,208.15404 940.677755,208.739899 940.677755,209.252525 C940.677755,209.838384 940.89605,210.35101 941.259875,210.790404 C941.914761,211.522727 942.933472,211.669192 943.806653,211.229798 L947.226611,209.472222 C947.735967,209.252525 948.245322,209.106061 948.827443,209.252525 C949.336798,209.325758 949.773389,209.545455 950.137214,209.911616 L959.160083,218.699495 C959.378378,218.919192 959.451143,219.212121 959.451143,219.505051 C959.378378,219.724747 959.232848,220.017677 959.014553,220.164141 Z M962.216216,208.739899 C961.27027,209.691919 960.615385,210.936869 960.397089,212.255051 C960.251559,213.280303 959.742204,214.232323 959.014553,214.964646 L958.214137,215.770202 L951.010395,208.739899 C950.428274,208.15404 949.773389,207.861111 948.972973,207.714646 C948.099792,207.568182 947.226611,207.714646 946.426195,208.080808 L943.006237,209.838384 C942.715177,209.984848 942.424116,209.911616 942.205821,209.691919 C942.060291,209.545455 941.987526,209.39899 942.060291,209.179293 C942.060291,208.959596 942.133056,208.813131 942.278586,208.739899 L946.49896,204.858586 C947.081081,204.272727 947.808732,203.833333 948.609148,203.540404 C949.773389,203.10101 950.93763,203.10101 952.101871,203.393939 L953.702703,203.833333 C953.775468,203.833333 953.775468,203.833333 953.848233,203.833333 C954.066528,203.979798 954.284823,203.979798 954.503119,203.833333 C955.158004,203.540404 955.740125,203.10101 956.24948,202.588384 L958.214137,200.611111 L964.253638,206.689394 L962.216216,208.739899 Z" id="Shape-Copy"></path>
        </g>
    </g>
</svg>