<svg width="173.272" height="49.817" viewBox="0 0 173.272 49.817" xmlns="http://www.w3.org/2000/svg">
    <g fill="#FFF" fill-rule="nonzero">
        <path d="m33.131 6.173.204 1.283c.153 1.18.229 2.361.203 3.567 0 2.644-.305 5.262-.916 7.828a30.43 30.43 0 0 1-4.198 9.753c-2.265 3.388-5.548 6.7-10.306 9.42l-.585.333-.586-.333c-4.758-2.67-8.04-6.006-10.305-9.42a29.645 29.645 0 0 1-4.2-9.753 33.755 33.755 0 0 1-.915-7.828c0-1.18.05-2.386.203-3.567l.178-1.283a.63.63 0 0 0 0-.308c-.025-.103-.05-.206-.127-.283a.778.778 0 0 0-.203-.205C1.5 5.326 1.4 5.3 1.323 5.274a.615.615 0 0 0-.305 0 .937.937 0 0 0-.28.129.778.778 0 0 0-.204.205c-.05.103-.076.205-.101.308L.229 7.199A31.809 31.809 0 0 0 0 11.023c0 2.772.33 5.519.967 8.213a32.74 32.74 0 0 0 1.756 5.339 30.704 30.704 0 0 0 2.672 4.928c2.392 3.593 5.852 7.11 10.84 9.881l.941.539c.128.051.255.077.382.077s.255-.026.382-.077l.941-.539c4.962-2.798 8.449-6.314 10.84-9.881a31.158 31.158 0 0 0 4.428-10.267 35.67 35.67 0 0 0 .942-8.213c0-1.283-.077-2.566-.23-3.85l-.203-1.283c-.025-.102-.05-.205-.102-.308a.778.778 0 0 0-.203-.205.937.937 0 0 0-.28-.128.615.615 0 0 0-.305 0 1.426 1.426 0 0 0-.306.102.778.778 0 0 0-.203.206.953.953 0 0 0-.128.282v.334z"/>
        <path d="m6.183 5.3 11.4-3.619 11.63 3.696c.101.026.203.026.305.026a.673.673 0 0 0 .305-.077.647.647 0 0 0 .255-.206.414.414 0 0 0 .127-.282c.025-.103.025-.205.025-.308a.688.688 0 0 0-.076-.308.922.922 0 0 0-.178-.257.407.407 0 0 0-.28-.128L17.813.038a.7.7 0 0 0-.458 0L5.75 3.734c-.102.026-.178.077-.28.129-.076.077-.153.154-.178.256a.688.688 0 0 0-.076.308c0 .103 0 .206.025.308a.953.953 0 0 0 .127.283c.051.077.153.154.255.205a.54.54 0 0 0 .305.077c.05.026.153.026.254 0z"/>
        <path d="m.56 6.404 16.311 33.16c.05.128.153.23.254.308.255.154.56.154.815 0a.881.881 0 0 0 .305-.308l9.95-19.378.025-.026 6.362-13.782a.688.688 0 0 0 .076-.308c0-.103 0-.205-.05-.308a.613.613 0 0 0-.153-.282.88.88 0 0 0-.23-.206.54.54 0 0 0-.305-.077c-.102 0-.203 0-.305.026a.605.605 0 0 0-.28.154c-.076.077-.153.154-.178.257l-6.362 13.782-9.262 18.043L1.908 5.634c-.05-.077-.127-.18-.178-.257a.605.605 0 0 0-.28-.154.422.422 0 0 0-.305-.026.673.673 0 0 0-.305.077.88.88 0 0 0-.23.206.953.953 0 0 0-.127.282c-.025.103-.05.205-.025.308.025.128.05.23.102.334z"/>
        <path d="M8.372 21.187H26.54c.101 0 .203-.026.305-.051a.407.407 0 0 0 .23-.18.533.533 0 0 0 .152-.257.857.857 0 0 0 0-.616c-.026-.102-.102-.18-.153-.256-.076-.077-.153-.129-.229-.18-.102-.026-.204-.051-.305-.051H8.37c-.1 0-.203.025-.304.051a.407.407 0 0 0-.23.18.533.533 0 0 0-.152.256.857.857 0 0 0 0 .616c.025.103.076.18.153.257.076.077.152.128.229.18.101.025.203.025.305.051zm50.638-6.904H47.203c-.102 0-.203.026-.305.051a.407.407 0 0 0-.23.18.533.533 0 0 0-.152.257c-.025.102-.05.205-.05.308v9.88c0 .104.025.206.05.309.026.103.077.18.153.257a1.4 1.4 0 0 0 .229.18c.102.025.203.05.305.05H59.01v1.669H47.203c-.152 0-.305-.026-.458-.052-.152-.025-.305-.077-.458-.128-.152-.051-.28-.128-.407-.205-.127-.103-.229-.206-.356-.308a2.529 2.529 0 0 1-.51-.77 3.124 3.124 0 0 1-.126-.462 2.852 2.852 0 0 1-.051-.462v-9.933c0-.154.025-.308.05-.462.026-.154.077-.308.128-.462.05-.154.127-.308.203-.436.077-.128.179-.257.306-.36.102-.102.229-.205.356-.307.127-.077.255-.154.407-.206.153-.051.306-.102.458-.128.153-.026.306-.051.458-.051H59.01v1.591zm22.164-1.668v1.668H69.8v4.902h9.135v1.694H69.8v4.902h11.374v1.668H68.222V12.615h12.952zM104.61 15.13v4.337c0 .154-.025.308-.05.462a3.124 3.124 0 0 1-.128.462c-.05.154-.127.308-.203.437-.102.128-.178.256-.305.359a4.44 4.44 0 0 1-.357.308 2.022 2.022 0 0 1-.407.205l-.458.154c-.153.026-.305.052-.458.052h-2.163l4.453 5.518h-2.137l-4.428-5.518h-5.191c-.255 0-.509-.026-.763-.077v5.595H90.41V12.64h11.858c.153 0 .306.026.459.052.152.025.305.077.458.128.152.051.28.128.407.231.254.18.458.41.636.667.076.129.153.283.203.437.051.154.102.308.128.462.025.18.05.359.05.513zm-11.858 5.133h9.492c.102 0 .204-.026.305-.051a.324.324 0 0 0 .23-.18.533.533 0 0 0 .152-.257c.026-.102.051-.205.051-.308V15.13a.902.902 0 0 0-.204-.565.714.714 0 0 0-.534-.256h-9.492c-.101 0-.203.025-.305.051a.407.407 0 0 0-.229.18.533.533 0 0 0-.153.256c-.025.103-.05.206-.05.308v4.338c0 .205.076.41.254.564a.614.614 0 0 0 .483.257zM113.11 12.615h14.199v1.668h-6.285v13.14h-1.604v-13.14h-6.31v-1.668zm22.85 14.834V12.64h1.604v14.81h-1.603zm22.953-14.834h2.062l-5.93 7.417L161 27.45h-2.087l-5.292-6.57h-4.58v6.57h-1.604V12.64h1.629v6.57h4.58l5.267-6.595z"/>
        <g>
            <path d="M53.54 47c-.084 0-.14-.038-.169-.113l-.563-1.775c-.01-.028-.028-.042-.056-.042H48.54c-.028 0-.047.014-.057.042l-.563 1.775c-.028.075-.085.113-.17.113h-.76c-.103 0-.14-.052-.113-.155l3.114-9.593c.028-.075.084-.113.169-.113h.958c.084 0 .14.038.169.113l3.127 9.593.014.056c0 .066-.042.099-.127.099h-.76zm-4.775-2.817c-.01.018-.007.035.007.049.014.014.03.021.05.021h3.634a.068.068 0 0 0 .05-.021c.013-.014.016-.03.006-.05l-1.831-5.747c-.01-.019-.024-.028-.042-.028-.02 0-.033.01-.043.028l-1.83 5.748zM60.358 40.013c0-.094.047-.14.141-.14h.719c.094 0 .14.046.14.14v6.846c0 .094-.046.141-.14.141h-.719c-.094 0-.14-.047-.14-.14v-.607c0-.018-.01-.033-.029-.042-.019-.01-.033-.005-.042.014-.394.582-1.019.874-1.874.874-.45 0-.866-.092-1.246-.275a2.15 2.15 0 0 1-.902-.796c-.22-.347-.33-.765-.33-1.254v-4.761c0-.094.046-.14.14-.14h.718c.094 0 .141.046.141.14v4.465c0 .536.15.96.451 1.275.3.315.71.472 1.226.472.535 0 .96-.16 1.275-.479.314-.32.471-.742.471-1.268v-4.465zM68.022 37.28c0-.094.047-.14.14-.14h.719c.094 0 .14.046.14.14v9.58c0 .093-.046.14-.14.14h-.719c-.093 0-.14-.047-.14-.14v-.593c0-.018-.007-.03-.022-.035-.014-.004-.03.003-.049.021a2.135 2.135 0 0 1-.768.634 2.28 2.28 0 0 1-1.02.226c-.658 0-1.21-.17-1.656-.507-.446-.339-.754-.799-.923-1.381-.131-.423-.197-1.019-.197-1.789 0-.78.056-1.362.17-1.747.168-.6.478-1.073.929-1.415.45-.343 1.01-.515 1.676-.515.366 0 .704.073 1.014.219.31.145.569.354.775.627.019.018.035.025.05.02.014-.004.02-.016.02-.034v-3.31zm-.254 7.875a2.51 2.51 0 0 0 .183-.662c.038-.254.057-.606.057-1.057 0-.45-.02-.805-.057-1.064a2.38 2.38 0 0 0-.197-.683 1.594 1.594 0 0 0-.556-.767 1.5 1.5 0 0 0-.923-.29c-.376 0-.7.095-.972.283-.272.187-.47.436-.592.746a2.45 2.45 0 0 0-.246.697c-.052.259-.078.618-.078 1.078 0 .441.019.787.057 1.035.037.25.103.472.197.67.112.338.312.605.598.802.287.198.627.296 1.022.296.375 0 .69-.098.944-.296.253-.197.441-.46.563-.788zM71.966 38.576a.764.764 0 0 1-.564-.225.764.764 0 0 1-.225-.564.759.759 0 0 1 .789-.789.759.759 0 0 1 .789.789.764.764 0 0 1-.226.564.764.764 0 0 1-.563.225zm-.395 8.41c-.093 0-.14-.047-.14-.141v-6.846c0-.094.047-.141.14-.141h.719c.094 0 .14.047.14.14v6.847c0 .094-.046.14-.14.14h-.719zM78.08 40.562c0 .094-.047.141-.141.141h-1.592c-.038 0-.056.019-.056.057v4.155c0 .45.1.768.302.951.202.183.52.275.951.275h.352c.094 0 .141.047.141.14v.578c0 .094-.047.141-.14.141-.113.01-.287.014-.522.014-.676 0-1.188-.127-1.535-.38-.348-.254-.521-.723-.521-1.409V40.76c0-.038-.02-.057-.057-.057h-.86c-.093 0-.14-.047-.14-.14v-.55c0-.094.047-.14.14-.14h.86c.038 0 .057-.02.057-.057v-1.634c0-.094.046-.141.14-.141h.69c.095 0 .142.047.142.14v1.635c0 .037.018.056.056.056h1.592c.094 0 .14.047.14.141v.55zM85.475 42.239c.038.263.056.591.056.986v.45c0 .094-.047.141-.14.141h-4.55c-.038 0-.057.02-.057.057.019.516.047.85.085 1 .103.422.324.756.662 1s.77.366 1.296.366c.394 0 .742-.089 1.042-.267.3-.179.535-.432.704-.761.057-.085.123-.103.198-.056l.55.324c.074.047.093.112.055.197-.234.45-.587.805-1.056 1.063-.47.259-1.01.388-1.62.388-.667-.01-1.226-.17-1.676-.48-.451-.31-.775-.741-.972-1.295-.17-.451-.254-1.099-.254-1.944 0-.395.007-.716.021-.965.014-.249.05-.472.106-.67a2.61 2.61 0 0 1 .965-1.464c.483-.366 1.068-.55 1.754-.55.854 0 1.512.216 1.972.648.46.432.746 1.043.859 1.832zm-2.831-1.606c-.46 0-.843.12-1.148.359-.306.24-.505.561-.6.965-.055.197-.093.516-.112.958 0 .037.019.056.057.056h3.648c.038 0 .056-.019.056-.056-.018-.423-.047-.723-.084-.902a1.78 1.78 0 0 0-.627-1.007c-.315-.249-.711-.373-1.19-.373zM91.94 37.28c0-.094.048-.14.142-.14h.718c.094 0 .141.046.141.14v9.58c0 .093-.047.14-.14.14h-.72c-.093 0-.14-.047-.14-.14v-.593c0-.018-.007-.03-.021-.035-.014-.004-.03.003-.05.021a2.135 2.135 0 0 1-.767.634 2.28 2.28 0 0 1-1.022.226c-.657 0-1.209-.17-1.655-.507-.446-.339-.753-.799-.922-1.381-.132-.423-.198-1.019-.198-1.789 0-.78.057-1.362.17-1.747.168-.6.478-1.073.93-1.415.45-.343 1.009-.515 1.675-.515.367 0 .705.073 1.015.219.31.145.568.354.774.627.02.018.036.025.05.02.014-.004.02-.016.02-.034v-3.31zm-.253 7.875a2.51 2.51 0 0 0 .183-.662c.038-.254.057-.606.057-1.057 0-.45-.019-.805-.057-1.064a2.38 2.38 0 0 0-.197-.683 1.594 1.594 0 0 0-.556-.767 1.5 1.5 0 0 0-.923-.29c-.376 0-.7.095-.972.283-.272.187-.47.436-.592.746a2.45 2.45 0 0 0-.246.697c-.052.259-.078.618-.078 1.078 0 .441.02.787.057 1.035.037.25.103.472.197.67.113.338.312.605.599.802.286.198.627.296 1.021.296.376 0 .69-.098.944-.296.253-.197.441-.46.563-.788zM100.491 39.76c.846 0 1.498.215 1.959.647.46.432.69 1.005.69 1.719v4.733c0 .094-.047.141-.141.141h-.719c-.093 0-.14-.047-.14-.14v-.578a.047.047 0 0 0-.022-.043c-.014-.01-.03-.004-.049.014a2.2 2.2 0 0 1-.915.641 3.444 3.444 0 0 1-1.254.219c-.667 0-1.226-.17-1.676-.507-.451-.339-.677-.855-.677-1.55 0-.704.256-1.26.768-1.67.512-.408 1.223-.612 2.134-.612h1.634c.038 0 .057-.019.057-.056v-.536c0-.479-.134-.857-.402-1.134-.267-.277-.683-.415-1.247-.415-.45 0-.817.087-1.098.26a1.091 1.091 0 0 0-.521.726c-.029.094-.085.136-.17.127l-.76-.099c-.104-.019-.146-.056-.127-.113.075-.526.357-.953.845-1.282.489-.328 1.099-.493 1.831-.493zm-.394 6.493c.554 0 1.033-.138 1.437-.415.404-.277.606-.65.606-1.12v-1.099c0-.037-.02-.056-.057-.056h-1.479c-.62 0-1.117.127-1.493.38A1.206 1.206 0 0 0 98.548 45c0 .413.143.725.43.936.286.212.659.317 1.119.317zM108.183 39.773c.751 0 1.35.221 1.796.663.446.44.669 1.033.669 1.774v4.65c0 .093-.047.14-.14.14h-.72c-.093 0-.14-.047-.14-.14v-4.452c0-.517-.157-.94-.472-1.268-.315-.329-.72-.493-1.219-.493-.516 0-.934.16-1.253.479-.32.32-.48.737-.48 1.254v4.48c0 .093-.046.14-.14.14h-.719c-.093 0-.14-.047-.14-.14v-6.847c0-.094.047-.14.14-.14h.719c.094 0 .14.046.14.14v.606c0 .018.008.033.022.042.014.01.026.005.035-.014.413-.582 1.047-.874 1.902-.874zM117.24 37.28c0-.094.048-.14.141-.14h.719c.094 0 .14.046.14.14v9.58c0 .093-.046.14-.14.14h-.719c-.093 0-.14-.047-.14-.14v-.593c0-.018-.007-.03-.022-.035-.014-.004-.03.003-.049.021a2.135 2.135 0 0 1-.768.634 2.28 2.28 0 0 1-1.02.226c-.658 0-1.21-.17-1.656-.507-.446-.339-.754-.799-.923-1.381-.131-.423-.197-1.019-.197-1.789 0-.78.056-1.362.17-1.747.168-.6.478-1.073.929-1.415.45-.343 1.01-.515 1.676-.515.366 0 .704.073 1.014.219.31.145.569.354.775.627.019.018.035.025.05.02.014-.004.02-.016.02-.034v-3.31zm-.253 7.875a2.51 2.51 0 0 0 .183-.662c.038-.254.056-.606.056-1.057 0-.45-.018-.805-.056-1.064a2.38 2.38 0 0 0-.197-.683 1.594 1.594 0 0 0-.557-.767 1.5 1.5 0 0 0-.922-.29c-.376 0-.7.095-.972.283-.273.187-.47.436-.592.746a2.45 2.45 0 0 0-.246.697c-.052.259-.078.618-.078 1.078 0 .441.019.787.057 1.035.037.25.103.472.197.67.112.338.312.605.598.802.287.198.627.296 1.022.296.375 0 .69-.098.944-.296.253-.197.44-.46.563-.788zM125.143 47c-.084 0-.14-.038-.169-.113l-2.31-6.86-.014-.056c0-.066.042-.099.127-.099h.803c.084 0 .14.038.169.113l1.76 5.522c.01.019.024.028.043.028.019 0 .033-.01.042-.028l1.76-5.522c.029-.075.085-.113.17-.113l.803.014c.103 0 .14.052.113.155l-2.31 6.846c-.029.075-.085.113-.17.113h-.817zM135.483 42.239c.037.263.056.591.056.986v.45c0 .094-.047.141-.14.141h-4.55c-.038 0-.057.02-.057.057.019.516.047.85.085 1 .103.422.324.756.662 1s.77.366 1.296.366c.394 0 .741-.089 1.042-.267.3-.179.535-.432.704-.761.057-.085.122-.103.198-.056l.549.324c.075.047.094.112.056.197-.235.45-.587.805-1.056 1.063-.47.259-1.01.388-1.62.388-.667-.01-1.226-.17-1.677-.48-.45-.31-.774-.741-.972-1.295-.169-.451-.253-1.099-.253-1.944 0-.395.007-.716.021-.965.014-.249.05-.472.106-.67a2.61 2.61 0 0 1 .965-1.464c.483-.366 1.068-.55 1.753-.55.855 0 1.512.216 1.973.648.46.432.746 1.043.859 1.832zm-2.832-1.606c-.46 0-.842.12-1.148.359-.305.24-.504.561-.598.965-.057.197-.094.516-.113.958 0 .037.019.056.056.056h3.649c.037 0 .056-.019.056-.056-.019-.423-.047-.723-.084-.902a1.78 1.78 0 0 0-.627-1.007c-.315-.249-.712-.373-1.19-.373zM140.4 39.802c.309 0 .577.06.802.183.075.037.103.098.085.183l-.155.69c-.029.094-.09.122-.183.085a1.433 1.433 0 0 0-.55-.099l-.183.014c-.488.019-.892.2-1.211.542-.32.343-.48.778-.48 1.304v4.155c0 .094-.046.141-.14.141h-.719c-.094 0-.14-.047-.14-.14v-6.847c0-.094.046-.14.14-.14h.719c.094 0 .14.046.14.14v.86c0 .027.008.044.022.049.014.004.026-.003.035-.022.197-.347.448-.617.754-.81a1.95 1.95 0 0 1 1.063-.288zM143.33 38.576a.764.764 0 0 1-.564-.225.764.764 0 0 1-.226-.564.759.759 0 0 1 .79-.789.759.759 0 0 1 .789.789.764.764 0 0 1-.226.564.764.764 0 0 1-.564.225zm-.395 8.41c-.094 0-.141-.047-.141-.141v-6.846c0-.094.047-.141.14-.141h.72c.093 0 .14.047.14.14v6.847c0 .094-.047.14-.14.14h-.72zM149.062 38.013c-.516 0-.868.115-1.056.345-.188.23-.282.622-.282 1.176v.282c0 .037.019.056.057.056h1.577c.094 0 .141.047.141.141v.634c0 .094-.047.14-.14.14h-1.578c-.038 0-.057.02-.057.057v6.015c0 .094-.047.141-.14.141h-.705c-.094 0-.14-.047-.14-.14v-6.016c0-.037-.02-.056-.057-.056h-.944c-.094 0-.14-.047-.14-.141v-.634c0-.094.046-.14.14-.14h.944c.037 0 .056-.02.056-.057v-.338c0-.583.066-1.04.197-1.374.132-.333.36-.577.684-.732.324-.155.777-.233 1.359-.233h.408c.094 0 .141.047.141.141v.592c0 .094-.047.14-.14.14h-.325zM150.936 49.817c-.066 0-.099-.047-.099-.14v-.564c0-.094.047-.14.141-.14h.057c.366-.01.65-.064.852-.163.202-.099.375-.282.521-.55.146-.267.303-.673.472-1.218.019-.037.019-.066 0-.084l-2.38-6.931-.015-.056c0-.066.042-.099.127-.099h.747c.084 0 .14.038.169.113l1.83 5.69c.01.02.024.029.043.029.019 0 .033-.01.042-.028l1.804-5.691c.028-.075.084-.113.169-.113h.732c.103 0 .14.052.113.155l-2.606 7.593c-.226.629-.437 1.094-.634 1.394-.197.3-.444.51-.74.627-.296.118-.711.176-1.246.176h-.099zM166.051 41.69c.113.422.17 1.004.17 1.746 0 .77-.067 1.366-.198 1.789-.179.582-.488 1.042-.93 1.38-.441.339-.99.508-1.648.508-.376 0-.718-.075-1.028-.226a2.066 2.066 0 0 1-.775-.648c-.01-.019-.024-.026-.042-.02-.02.004-.029.016-.029.034v.606c0 .094-.047.141-.14.141h-.719c-.094 0-.14-.047-.14-.14v-9.58c0-.094.046-.14.14-.14h.719c.093 0 .14.046.14.14v3.325c0 .018.007.03.022.035.014.005.03-.003.049-.021.206-.273.465-.484.775-.634.31-.15.652-.226 1.028-.226.667 0 1.226.172 1.676.515.451.342.761.814.93 1.415zm-1.085 3.45c.094-.197.16-.42.198-.669a7.34 7.34 0 0 0 .056-1.035c0-.46-.026-.82-.078-1.078a2.45 2.45 0 0 0-.246-.697 1.599 1.599 0 0 0-.592-.746 1.67 1.67 0 0 0-.972-.282 1.5 1.5 0 0 0-.922.289 1.594 1.594 0 0 0-.557.767 2.538 2.538 0 0 0-.204.676c-.042.254-.063.61-.063 1.071 0 .45.02.8.063 1.05.042.248.106.471.19.669.122.328.31.591.564.788.253.198.568.296.943.296.395 0 .735-.098 1.022-.296.286-.197.486-.464.598-.802zM167.939 49.817c-.066 0-.099-.047-.099-.14v-.564c0-.094.047-.14.14-.14h.057c.367-.01.65-.064.852-.163.202-.099.376-.282.522-.55.145-.267.303-.673.472-1.218.018-.037.018-.066 0-.084l-2.381-6.931-.014-.056c0-.066.042-.099.127-.099h.746c.085 0 .141.038.17.113l1.83 5.69c.01.02.024.029.043.029.019 0 .033-.01.042-.028l1.803-5.691c.028-.075.085-.113.17-.113h.732c.103 0 .14.052.112.155l-2.606 7.593c-.225.629-.436 1.094-.634 1.394-.197.3-.443.51-.74.627-.295.118-.71.176-1.246.176h-.098z"/>
        </g>
    </g>
</svg>
