<svg width="46" height="45" viewBox="0 0 46 45" xmlns="http://www.w3.org/2000/svg">
    <g fill="none" fill-rule="evenodd">
        <g fill="#6F7172">
            <path d="M16.68 16.845H9.989c1.714-3.644 4.905-6.448 8.82-7.614-1.005 1.963-1.729 4.648-2.127 7.614zM9.989 28.752h6.693c.398 2.952 1.122 5.637 2.127 7.6-3.915-1.166-7.106-3.97-8.82-7.6zm-1.329-5.96c0-1.137.148-2.243.4-3.291h7.356a40.828 40.828 0 0 0 0 6.596H9.058a14.339 14.339 0 0 1-.399-3.306zM22.811 8.655c.99 0 2.704 2.848 3.472 8.19h-6.929c.768-5.342 2.467-8.19 3.457-8.19zm12.823 8.19h-6.677c-.414-2.967-1.123-5.652-2.128-7.615a14.208 14.208 0 0 1 8.805 7.614zM25.13 33.605c-.782 2.185-1.698 3.32-2.319 3.32-.99 0-2.689-2.847-3.457-8.174h4.595l-.074-.295a3.696 3.696 0 0 1 .207-2.36h-5.008a39.13 39.13 0 0 1-.118-3.306c0-1.165.03-2.272.118-3.29h7.49a45.64 45.64 0 0 1 .118 3.29c0 .384 0 .753-.015 1.122.28-.089.59-.118.886-.118.296 0 .606.03.901.103l.857.207c.03-.428.03-.871.03-1.314 0-1.106-.03-2.213-.118-3.29h7.342c.265 1.048.413 2.154.413 3.29 0 1.048-.133 2.08-.37 3.07l2.423.59c.06.015.134.03.193.059.266-1.196.413-2.435.413-3.719C39.637 13.525 32.088 6 22.811 6 13.55 6 6 13.525 6 22.791c0 9.267 7.549 16.792 16.811 16.792 1.27 0 2.497-.133 3.678-.413-.014-.045-.03-.089-.043-.133l-1.316-5.43z"/>
            <path d="m40.797 37.625-5.034-5.028 2.886-1.465c.93-.473.77-1.848-.246-2.093l-10.58-2.555a1.124 1.124 0 0 0-1.357 1.355l2.558 10.568c.245 1.014 1.622 1.175 2.096.245l1.467-2.883 5.034 5.029c.27.27.708.27.979 0l2.197-2.195a.69.69 0 0 0 0-.978"/>
        </g>
        <path d="M0 0h46v45H0z"/>
    </g>
</svg>
