<svg width="46" height="45" viewBox="0 0 46 45" xmlns="http://www.w3.org/2000/svg">
    <g fill="none" fill-rule="evenodd">
        <path d="M0 0h46v45H0z"/>
        <path d="M31.501 16.17c-.64-.357-1.462-.357-2.193 0l-5.117 2.937-3.473 1.87-5.026 2.937c-.64.356-1.462.356-2.193 0l-3.93-2.315a2.16 2.16 0 0 1-1.096-1.869v-4.451c0-.712.365-1.424 1.096-1.87l3.93-2.225c.64-.356 1.462-.356 2.193 0l3.93 2.315a2.16 2.16 0 0 1 1.096 1.869v2.938l3.473-1.959V13.32c0-.712-.366-1.424-1.097-1.869l-7.31-4.184c-.64-.356-1.463-.356-2.194 0L6.097 11.54C5.366 11.896 5 12.608 5 13.32v8.368c0 .713.366 1.425 1.097 1.87l7.402 4.184c.64.356 1.462.356 2.193 0l5.026-2.849 3.473-1.958 5.026-2.849c.64-.356 1.462-.356 2.193 0l3.93 2.226a2.16 2.16 0 0 1 1.096 1.869v4.451c0 .712-.366 1.424-1.097 1.87l-3.838 2.225c-.64.356-1.462.356-2.193 0l-3.93-2.226a2.16 2.16 0 0 1-1.096-1.869v-2.849l-3.473 1.959v2.938c0 .712.366 1.424 1.097 1.869l7.402 4.184c.64.356 1.462.356 2.193 0l7.402-4.184A2.16 2.16 0 0 0 40 30.679v-8.456c0-.713-.366-1.425-1.097-1.87l-7.402-4.184z" fill="#6F7172" fill-rule="nonzero"/>
    </g>
</svg>
