<svg width="182.485" height="43.063" viewBox="0 0 182.485 43.063" xmlns="http://www.w3.org/2000/svg" xmlns:xlink="http://www.w3.org/1999/xlink">
    <defs>
        <path id="veitrxapla" d="M0 0h7.808v7.83H0z"/>
    </defs>
    <g fill="none" fill-rule="evenodd">
        <g fill="#FFF" fill-rule="nonzero">
            <path d="m81.672 11.944-4.038 13.623h-2.53l-2.861-10.31-3.038 10.31-2.51.02-3.861-13.643h2.372l2.823 11.095 3.057-11.095h2.51l2.842 11.036 2.842-11.036zM93.413 19.903c0 .405-.026.77-.078 1.097h-8.253c.066.863.386 1.555.96 2.078.576.523 1.281.784 2.118.784 1.202 0 2.051-.503 2.548-1.51h2.411a4.865 4.865 0 0 1-1.774 2.441c-.856.634-1.918.95-3.185.95-1.033 0-1.957-.231-2.774-.695a4.951 4.951 0 0 1-1.92-1.96c-.465-.843-.697-1.82-.697-2.93 0-1.111.226-2.088.677-2.931a4.756 4.756 0 0 1 1.9-1.95c.818-.458 1.755-.687 2.814-.687 1.02 0 1.927.223 2.724.667a4.71 4.71 0 0 1 1.863 1.872c.444.804.666 1.728.666 2.774zm-2.333-.706c-.013-.823-.307-1.483-.882-1.98-.575-.497-1.287-.745-2.136-.745-.771 0-1.431.245-1.98.735-.549.49-.876 1.153-.98 1.99h5.978zM97.843 16.374c.38-.523.899-.95 1.559-1.284.66-.333 1.395-.5 2.205-.5.954 0 1.816.23 2.587.686.771.458 1.379 1.108 1.823 1.95.445.844.667 1.807.667 2.892s-.222 2.055-.667 2.911c-.444.856-1.055 1.522-1.833 2a4.834 4.834 0 0 1-2.577.715c-.837 0-1.578-.163-2.225-.49-.647-.327-1.16-.745-1.539-1.255v1.568H95.61V11.062h2.234v5.312zm6.567 3.744c0-.745-.154-1.388-.46-1.93a3.157 3.157 0 0 0-1.216-1.236 3.264 3.264 0 0 0-1.617-.421c-.562 0-1.095.144-1.598.431a3.211 3.211 0 0 0-1.215 1.255c-.307.549-.46 1.195-.46 1.94 0 .745.153 1.395.46 1.95.307.556.712.978 1.215 1.265a3.171 3.171 0 0 0 1.598.431c.575 0 1.114-.147 1.617-.44.503-.295.908-.723 1.215-1.285.307-.562.46-1.215.46-1.96zM108.565 14.806c.079-1.215.546-2.163 1.402-2.842.856-.68 1.95-1.02 3.283-1.02.915 0 1.706.164 2.372.49.667.327 1.17.771 1.51 1.333.34.562.51 1.196.51 1.902 0 .81-.216 1.503-.648 2.078-.43.575-.947.96-1.548 1.156v.079c.77.235 1.372.663 1.803 1.283.431.621.647 1.415.647 2.382 0 .771-.176 1.457-.53 2.058-.352.601-.875 1.075-1.567 1.421-.693.347-1.523.52-2.49.52-1.411 0-2.571-.363-3.48-1.088-.907-.725-1.394-1.767-1.46-3.127h2.157c.052.693.32 1.258.803 1.696.484.438 1.137.657 1.96.657.798 0 1.412-.22 1.843-.657.431-.438.647-1.003.647-1.696 0-.914-.29-1.564-.872-1.95-.582-.385-1.474-.578-2.676-.578h-.51V17.06h.53c1.058-.013 1.865-.19 2.42-.529.556-.34.834-.876.834-1.607 0-.628-.203-1.128-.608-1.5-.405-.372-.98-.559-1.725-.559-.732 0-1.3.187-1.705.56a2.257 2.257 0 0 0-.726 1.381h-2.176zM129.99 14.59c.837 0 1.578.167 2.225.5.647.333 1.154.748 1.52 1.245v-1.568h2.254v10.977c0 .993-.21 1.878-.628 2.656a4.532 4.532 0 0 1-1.813 1.833c-.79.444-1.735.666-2.832.666-1.464 0-2.68-.343-3.646-1.029-.967-.686-1.516-1.617-1.647-2.793h2.215c.17.562.533 1.016 1.088 1.362.556.346 1.219.52 1.99.52.901 0 1.63-.275 2.185-.824.556-.549.833-1.346.833-2.391V23.94c-.379.51-.891.937-1.538 1.283-.647.347-1.382.52-2.206.52-.94 0-1.8-.239-2.577-.716-.778-.477-1.392-1.143-1.843-1.999-.45-.856-.676-1.826-.676-2.91 0-1.086.225-2.046.676-2.882a4.957 4.957 0 0 1 1.843-1.95 4.936 4.936 0 0 1 2.577-.697zm3.744 5.567c0-.745-.153-1.391-.46-1.94-.307-.55-.71-.967-1.206-1.255a3.154 3.154 0 0 0-1.607-.431c-.575 0-1.11.14-1.607.421-.497.281-.899.693-1.206 1.235-.307.543-.46 1.186-.46 1.931 0 .745.153 1.398.46 1.96.307.562.712.99 1.215 1.284a3.154 3.154 0 0 0 3.205.01c.497-.287.899-.709 1.206-1.264.307-.556.46-1.206.46-1.95zM138.184 20.118c0-1.085.226-2.045.676-2.881a4.957 4.957 0 0 1 1.843-1.95 4.936 4.936 0 0 1 2.578-.697c.849 0 1.59.167 2.224.5.634.333 1.14.748 1.52 1.245v-1.568h2.254v10.8h-2.254V23.96c-.38.51-.896.934-1.549 1.274-.653.34-1.398.51-2.235.51a4.75 4.75 0 0 1-2.548-.716c-.77-.477-1.382-1.143-1.833-1.999-.45-.856-.676-1.826-.676-2.91zm8.84.04c0-.746-.153-1.392-.46-1.941-.307-.55-.709-.967-1.206-1.255a3.154 3.154 0 0 0-1.607-.431c-.575 0-1.11.14-1.607.421-.497.281-.899.693-1.206 1.235-.307.543-.46 1.186-.46 1.931 0 .745.153 1.398.46 1.96.307.562.712.99 1.215 1.284a3.154 3.154 0 0 0 3.205.01c.497-.287.899-.709 1.206-1.264.307-.556.46-1.206.46-1.95zM165.294 14.59c.85 0 1.61.177 2.283.53a3.824 3.824 0 0 1 1.588 1.568c.386.692.578 1.529.578 2.509v6.37h-2.215V19.53c0-.967-.241-1.709-.725-2.225s-1.143-.774-1.98-.774c-.836 0-1.5.258-1.99.774s-.734 1.258-.734 2.225v6.037h-2.215V19.53c0-.967-.242-1.709-.726-2.225-.483-.516-1.143-.774-1.98-.774-.836 0-1.5.258-1.99.774s-.734 1.258-.734 2.225v6.037h-2.235v-10.8h2.235v1.235c.366-.445.83-.79 1.391-1.04a4.412 4.412 0 0 1 1.804-.372c.862 0 1.633.183 2.313.55.68.365 1.202.894 1.568 1.587.327-.653.836-1.173 1.529-1.558a4.521 4.521 0 0 1 2.235-.579zM182.485 19.903c0 .405-.027.77-.079 1.097h-8.252c.065.863.385 1.555.96 2.078.575.523 1.28.784 2.117.784 1.203 0 2.052-.503 2.549-1.51h2.41a4.865 4.865 0 0 1-1.773 2.441c-.856.634-1.918.95-3.186.95-1.032 0-1.957-.231-2.773-.695a4.951 4.951 0 0 1-1.921-1.96c-.464-.843-.696-1.82-.696-2.93 0-1.111.225-2.088.676-2.931a4.756 4.756 0 0 1 1.901-1.95c.817-.458 1.755-.687 2.813-.687 1.02 0 1.928.223 2.725.667a4.71 4.71 0 0 1 1.862 1.872c.444.804.667 1.728.667 2.774zm-2.333-.706c-.013-.823-.307-1.483-.882-1.98-.575-.497-1.287-.745-2.137-.745-.77 0-1.43.245-1.98.735-.548.49-.875 1.153-.98 1.99h5.979z"/>
        </g>
        <path d="M33.46 38.412c-.114-.028-.131-.103-.036-.176 1.945-1.5 2.725-3.947 2.92-4.675a.185.185 0 0 0-.16-.236c-.78-.081-3.53-.241-5.667 1.232-2.137 1.476-2.975 4.108-3.18 4.866a.493.493 0 0 0 .08.382c.492.612 2.323 2.677 4.874 3.152 2.549.476 4.997-.792 5.675-1.185a.185.185 0 0 0 .052-.282c-.473-.585-2.174-2.502-4.558-3.078M46.752 34.85c-.602-.355-2.63-1.423-4.796-1.127-.115.015-.154-.048-.095-.151 1.13-1.945 1.002-4.306.93-5.02-.012-.12-.117-.194-.227-.163-.698.2-3.035.993-4.341 2.983-1.307 1.99-1.166 4.538-1.091 5.286a.49.49 0 0 0 .205.327c.627.373 2.819 1.529 5.096 1.083 2.278-.446 3.915-2.352 4.371-2.937a.188.188 0 0 0-.052-.282M52.542 25.686c-.656-.083-2.742-.233-4.484.859-.1.063-.161.019-.145-.105.286-2.15-.626-4.18-.942-4.805-.056-.11-.18-.137-.27-.06-.544.463-2.25 2.073-2.678 4.338-.426 2.263.562 4.463.895 5.118a.468.468 0 0 0 .31.228c.688.089 2.952.253 4.74-1.021 1.788-1.277 2.532-3.588 2.726-4.304.032-.12-.037-.234-.152-.248M54.628 16.158c-.01-.115-.124-.187-.246-.158-.634.155-2.48.702-3.659 2.04-.079.09-.158.073-.187-.04-.439-1.67-1.853-2.888-2.353-3.275a.2.2 0 0 0-.295.046c-.347.547-1.313 2.277-.969 4.092.343 1.814 1.892 3.145 2.42 3.554a.542.542 0 0 0 .398.083c.668-.161 2.69-.759 3.851-2.265 1.161-1.505 1.098-3.447 1.04-4.077M46.958 7.645c-.112.583-.337 2.283.529 3.703.866 1.42 2.556 2.12 3.155 2.332a.538.538 0 0 0 .408-.045c.528-.337 1.987-1.391 2.46-2.962.475-1.57-.184-3.17-.446-3.712a.198.198 0 0 0-.29-.076c-.495.319-1.817 1.274-2.366 2.697-.042.11-.122.119-.193.02-.899-1.259-2.43-1.893-2.994-2.094-.119-.041-.24.022-.263.137M48.48 5.857c.095.047.195-.018.216-.14.094-.566.275-2.124-.309-3.454-.584-1.33-1.758-2.025-2.2-2.247-.094-.048-.194.016-.214.138-.095.565-.276 2.127.31 3.455.583 1.332 1.757 2.025 2.198 2.248M23.161 34.557c-2.137-1.473-4.888-1.313-5.666-1.232a.185.185 0 0 0-.161.237c.195.727.975 3.174 2.922 4.674.093.073.078.148-.038.176-2.383.576-4.085 2.493-4.558 3.078a.184.184 0 0 0 .052.282c.677.393 3.126 1.661 5.676 1.185 2.55-.475 4.38-2.54 4.873-3.152a.487.487 0 0 0 .078-.382c-.203-.758-1.04-3.39-3.178-4.866M16.545 36.658c.077-.749.218-3.296-1.09-5.286-1.306-1.99-3.642-2.782-4.34-2.983-.111-.031-.216.044-.228.163-.072.715-.2 3.076.93 5.02.06.101.02.166-.095.151-2.168-.297-4.196.772-4.797 1.126a.189.189 0 0 0-.051.282c.456.585 2.093 2.49 4.371 2.937 2.277.446 4.467-.709 5.095-1.083a.49.49 0 0 0 .205-.327" fill="#3D4A6F"/>
        <path d="M9.426 31.26a.462.462 0 0 0 .31-.228c.333-.655 1.32-2.855.895-5.12-.427-2.264-2.134-3.873-2.678-4.336-.09-.078-.215-.05-.27.058-.316.625-1.228 2.655-.942 4.806.016.123-.045.167-.145.105-1.74-1.092-3.829-.942-4.484-.86-.114.015-.185.128-.152.248.194.716.938 3.027 2.727 4.304 1.787 1.274 4.05 1.11 4.739 1.023" fill="#3D4A6F"/>
        <g transform="translate(0 14.68)">
            <mask id="aoywpkjlkb" fill="#fff">
                <use xlink:href="#veitrxapla"/>
            </mask>
            <path d="M5.314 7.737c.527-.409 2.077-1.74 2.42-3.556.345-1.814-.621-3.543-.969-4.09A.202.202 0 0 0 6.47.043C5.97.432 4.555 1.65 4.118 3.32c-.03.112-.108.128-.187.038C2.75 2.02.903 1.474.27 1.32c-.123-.03-.235.043-.245.158-.058.63-.121 2.572 1.04 4.077 1.161 1.506 3.183 2.103 3.85 2.265.122.03.302-.008.398-.082" fill="#3D4A6F" mask="url(#aoywpkjlkb)"/>
        </g>
        <path d="M3.603 13.635c.104.066.289.087.407.045.599-.212 2.29-.913 3.157-2.334.866-1.42.641-3.119.528-3.701-.022-.115-.143-.179-.262-.137-.563.199-2.095.834-2.996 2.093-.07.099-.15.09-.193-.021-.547-1.42-1.869-2.376-2.364-2.695a.199.199 0 0 0-.29.075c-.262.542-.921 2.143-.447 3.711.474 1.571 1.932 2.626 2.46 2.964M5.197 5.857c.441-.223 1.615-.916 2.198-2.248.586-1.328.405-2.89.31-3.455-.02-.122-.12-.186-.215-.138-.442.222-1.615.916-2.2 2.247-.583 1.33-.402 2.888-.308 3.455.021.121.12.186.215.139" fill="#3D4A6F"/>
        <g fill="#FFF">
            <path d="M37.087 23.691a.23.23 0 0 1-.236.225H25.61a.23.23 0 0 1-.236-.225v-3.198a.23.23 0 0 1 .236-.223h3.302a.23.23 0 0 0 .236-.224V9.856a.23.23 0 0 0-.236-.224h-2.859a.23.23 0 0 1-.235-.224V7.056a.29.29 0 0 1 .23-.268c1.77-.345 2.967-.784 4.177-1.477a1.04 1.04 0 0 1 .435-.117h3.026c.13 0 .236.1.236.224v14.628a.23.23 0 0 0 .236.224h2.692c.13 0 .236.1.236.223v3.198z"/>
            <path d="M23.534 13.948c0 .098-.05.147-.147.147h-1.132c-.05 0-.074.02-.074.06l-.294 2.028c0 .04.015.059.044.059h.927c.098 0 .147.049.147.147v.926c0 .098-.05.147-.147.147H21.74c-.049 0-.073.02-.073.059l-.368 2.323c-.01.088-.059.132-.147.132l-1.117-.015a.141.141 0 0 1-.103-.044c-.03-.03-.04-.068-.03-.117l.353-2.28c0-.038-.014-.058-.044-.058h-2.043c-.05 0-.074.02-.074.059l-.367 2.323c-.01.088-.06.132-.147.132l-1.118-.015a.141.141 0 0 1-.103-.044c-.029-.03-.039-.068-.029-.117l.353-2.28c0-.038-.015-.058-.044-.058h-.926c-.098 0-.147-.049-.147-.147l.014-.926c0-.098.05-.147.147-.147h1.088c.05 0 .074-.02.074-.059l.308-2.029c0-.039-.014-.059-.044-.059h-.896c-.098 0-.147-.049-.147-.147v-.94c0-.098.049-.147.147-.147h1.087c.05 0 .074-.02.074-.06l.368-2.322c.01-.088.058-.132.147-.132l1.117.014c.04 0 .073.015.103.044.03.03.039.069.03.118l-.354 2.279c0 .039.015.059.044.059h2.044c.049 0 .073-.02.073-.06l.368-2.322c.01-.088.059-.132.147-.132l1.117.014c.04 0 .074.015.103.044.03.03.04.069.03.118l-.353 2.279c0 .039.014.059.044.059h.955c.099 0 .148.049.148.147l-.015.94zm-3.146 2.294c.049 0 .073-.02.073-.059l.309-2.029c0-.039-.015-.059-.044-.059h-2.044c-.049 0-.073.02-.073.06l-.294 2.028c0 .04.014.059.044.059h2.029z" fill-rule="nonzero"/>
        </g>
    </g>
</svg>
