<svg width="46" height="45" viewBox="0 0 46 45" xmlns="http://www.w3.org/2000/svg">
    <g fill="none" fill-rule="evenodd">
        <path d="M0 0h46v45H0z"/>
        <g fill="#6F7172">
            <path d="M42.266 16.282c-1.804-1.207-4.257-.74-5.478 1.041-.216.315-.36.653-.472.997l-3.706.244c.253.907.4 1.856.4 2.841l3.496-.23a3.871 3.871 0 0 0 1.337 1.558c1.804 1.206 4.257.74 5.478-1.042a3.866 3.866 0 0 0-1.055-5.41M18.664 34.165l.631-2.336a10.916 10.916 0 0 1-2.699-1.108l-.76 2.819a3.797 3.797 0 0 0-2.51 1.591 3.732 3.732 0 0 0 1.02 5.223c1.741 1.164 4.11.714 5.288-1.006a3.728 3.728 0 0 0-.97-5.183m-4.063-20.573-2.222-1.828a4.796 4.796 0 0 0-1.737-5.931c-2.24-1.497-5.284-.918-6.8 1.293a4.798 4.798 0 0 0 1.31 6.715 4.944 4.944 0 0 0 5.336.091l2.29 1.884a10.86 10.86 0 0 1 1.823-2.224M13.586 21.417c0 4.638 3.808 8.398 8.505 8.398 4.697 0 8.506-3.76 8.506-8.398 0-4.639-3.809-8.4-8.506-8.4s-8.505 3.761-8.505 8.4z"/>
        </g>
    </g>
</svg>
