<svg width="46" height="45" viewBox="0 0 46 45" xmlns="http://www.w3.org/2000/svg" xmlns:xlink="http://www.w3.org/1999/xlink">
    <defs>
        <path id="oi223pr8da" d="M0 0h35v38H0z"/>
    </defs>
    <g fill="none" fill-rule="evenodd">
        <path d="M0 0h46v45H0z"/>
        <g transform="translate(6 3)">
            <mask id="xh7grf4ujb" fill="#fff">
                <use xlink:href="#oi223pr8da"/>
            </mask>
            <path d="M17.5 28.038c-5.145 0-9.316-4.046-9.316-9.038S12.355 9.96 17.5 9.96c5.145 0 9.316 4.047 9.316 9.039s-4.171 9.038-9.316 9.038M33.322 7.765C27.145 7.022 21.198 2.536 18.714.441a1.894 1.894 0 0 0-2.428 0c-2.484 2.095-8.43 6.581-14.608 7.324C.696 7.883-.038 8.69.002 9.65c.761 18.223 13.11 26.22 16.59 28.119.568.31 1.248.31 1.815 0 3.482-1.9 15.83-9.896 16.591-28.119.04-.96-.694-1.766-1.676-1.884" fill="#6F7172" mask="url(#xh7grf4ujb)"/>
        </g>
        <path fill="#6F7172" d="m27.614 17.427-5.553 5.388-2.705-2.623-1.921 1.864 2.704 2.624 1.951 1.893 1.922-1.865 5.553-5.388z"/>
    </g>
</svg>
