<svg width="32" height="32" viewBox="0 0 32 32" xmlns="http://www.w3.org/2000/svg">
    <g fill="none" fill-rule="evenodd">
        <path d="M3.65 15.997c3.522-1.65 13.789-6.417 18.808-8.271 1.039-.384 2.101.508 1.934 1.624l-2.25 14.976c-.178 1.179-1.485 1.779-2.465 1.13l-6.506-4.299c-.91-.602-1.02-1.92-.221-2.67l5.998-5.879c.255-.25-.072-.659-.363-.452l-8.558 6.113a2.836 2.836 0 0 1-2.744.315l-3.609-1.5c-.47-.195-.485-.87-.023-1.087" fill="#6F7172"/>
        <circle stroke="#6F7172" cx="16" cy="16" r="15.5"/>
    </g>
</svg>
