<svg width="186" height="38" viewBox="0 0 186 38" xmlns="http://www.w3.org/2000/svg" xmlns:xlink="http://www.w3.org/1999/xlink">
    <defs>
        <path id="rfh5gxjcea" d="M0 0h38v38H0z"/>
        <path id="ntoa37kwoc" d="M0 0h26v38H0z"/>
    </defs>
    <g fill="none" fill-rule="evenodd">
        <g>
            <mask id="eql2tp3brb" fill="#fff">
                <use xlink:href="#rfh5gxjcea"/>
            </mask>
            <path d="M37.437 23.573c-2.525 10.182-12.827 16.39-23.01 13.864C4.245 34.912-1.963 24.61.563 14.428 3.088 4.246 13.389-1.962 23.573.563l.051.013C33.779 3.125 39.958 13.41 37.437 23.573z" fill="#F7931A" mask="url(#eql2tp3brb)"/>
        </g>
        <path d="M27.951 16.659c.391-2.522-1.619-3.877-4.342-4.776l.894-3.416-2.202-.52-.868 3.327a77.33 77.33 0 0 0-1.744-.392l.868-3.361L18.38 7l-.893 3.415-1.39-.295-3.008-.717-.578 2.22s1.614.355 1.582.379c.617.07 1.066.593 1.018 1.184l-1.018 3.888c.077.016.152.04.224.07l-.23-.058-1.42 5.45c-.133.4-.58.619-.999.491 0 .03-1.588-.372-1.588-.372L9 25.022l2.835.67 1.551.384-.9 3.45 2.178.521.893-3.415c.586.154 1.164.296 1.73.427l-.88 3.426 2.177.515.9-3.445c3.721.67 6.507.403 7.685-2.804.95-2.581-.049-4.067-2.004-5.037 1.427-.314 2.482-1.184 2.786-3.054v-.001zm-4.962 6.658c-.67 2.58-5.223 1.184-6.7.834l1.198-4.575c1.476.355 6.202 1.048 5.502 3.741zm.676-6.694c-.62 2.367-4.404 1.154-5.633.864l1.086-4.143c1.21.285 5.167.829 4.528 3.279h.019z" fill="#FFF"/>
        <g transform="translate(43)">
            <mask id="6o8ijp367d" fill="#fff">
                <use xlink:href="#ntoa37kwoc"/>
            </mask>
            <path d="M16.95 11.494a9.253 9.253 0 0 1 4.024.82 7.998 7.998 0 0 1 2.816 2.215 9.219 9.219 0 0 1 1.677 3.283c.363 1.318.542 2.678.533 4.043a16.366 16.366 0 0 1-4.636 11.395 15.946 15.946 0 0 1-5.049 3.455 15.52 15.52 0 0 1-6.3 1.295H8.48a23.338 23.338 0 0 1-2.492-.214 28.852 28.852 0 0 1-2.994-.593A14.69 14.69 0 0 1 0 36.136L8.415 1.187 15.932 0l-2.994 12.403c.624-.28 1.27-.504 1.935-.67a8.757 8.757 0 0 1 2.09-.244l-.012.006h-.001zm-6.307 20.568c1.12.003 2.22-.28 3.199-.82a8.292 8.292 0 0 0 2.599-2.15 10.98 10.98 0 0 0 1.719-3.104c.422-1.158.637-2.38.635-3.61a7.005 7.005 0 0 0-.779-3.604c-.515-.861-1.474-1.3-2.863-1.3a9.036 9.036 0 0 0-1.797.243 4.348 4.348 0 0 0-1.965 1.009L8.217 31.883l.51.096c.15.036.305.06.46.071.199.025.4.034.6.03l.855-.019.001.001z" fill="#FFF" mask="url(#6o8ijp367d)"/>
        </g>
        <path d="M76.341 37H69l6.203-25.406h7.384L76.341 37zm3.567-28.502a4.638 4.638 0 0 1-2.778-.888 3.132 3.132 0 0 1-1.223-2.731 4.4 4.4 0 0 1 .421-1.903c.27-.58.65-1.107 1.12-1.55A5.522 5.522 0 0 1 79.057.388 5.018 5.018 0 0 1 81.015 0a4.628 4.628 0 0 1 2.753.894 3.144 3.144 0 0 1 1.223 2.732 4.42 4.42 0 0 1-.416 1.908 5.123 5.123 0 0 1-1.114 1.545 5.417 5.417 0 0 1-1.609 1.037c-.618.26-1.284.39-1.957.382h.013zM88.413 6.141 95.868 5l-1.853 7.383H102l-1.438 5.813h-7.92l-2.115 8.742c-.183.67-.296 1.355-.339 2.047-.043.56.041 1.123.244 1.647.199.47.567.85 1.034 1.065a4.705 4.705 0 0 0 2.139.388c.751.003 1.502-.07 2.24-.217.741-.144 1.472-.34 2.186-.589l.534 5.436c-1.024.364-2.07.665-3.131.9-1.312.276-2.65.404-3.992.383-2.217 0-3.927-.33-5.15-.978a5.699 5.699 0 0 1-2.603-2.67 8.434 8.434 0 0 1-.671-3.884c.08-1.557.304-3.105.671-4.623l4.723-19.726v.024zM102.018 27.081a18.271 18.271 0 0 1 1.05-6.238 15.447 15.447 0 0 1 3.01-5.119 14.114 14.114 0 0 1 4.756-3.454 14.961 14.961 0 0 1 6.237-1.269 16.253 16.253 0 0 1 3.848.415c1.061.257 2.093.623 3.081 1.095l-2.46 5.637a22.517 22.517 0 0 0-1.984-.704 8.445 8.445 0 0 0-2.508-.319 6.96 6.96 0 0 0-5.589 2.503c-1.38 1.655-2.074 3.882-2.077 6.677a6.984 6.984 0 0 0 1.05 4.02c.7 1.022 1.992 1.533 3.872 1.533.901 0 1.8-.098 2.68-.295.784-.17 1.553-.414 2.295-.728l.525 5.8c-.965.372-1.95.69-2.95.95-1.27.291-2.57.429-3.872.41a12.934 12.934 0 0 1-5.063-.874 9.526 9.526 0 0 1-3.387-2.363 8.97 8.97 0 0 1-1.941-3.49c-.401-1.366-.6-2.785-.59-4.21l.017.024zM132.907 37.997a11.264 11.264 0 0 1-4.398-.783 8.109 8.109 0 0 1-3.077-2.193 9.506 9.506 0 0 1-1.84-3.341 13.865 13.865 0 0 1-.59-4.263c.006-1.988.317-3.964.927-5.853a16.734 16.734 0 0 1 2.723-5.245 14.7 14.7 0 0 1 4.439-3.83 12.014 12.014 0 0 1 6.013-1.487c1.494-.028 2.98.239 4.375.783a8.225 8.225 0 0 1 3.095 2.161 9.638 9.638 0 0 1 1.833 3.343 13.7 13.7 0 0 1 .59 4.269 19.816 19.816 0 0 1-.902 5.853 17.03 17.03 0 0 1-2.677 5.268 14.147 14.147 0 0 1-4.415 3.825 12.268 12.268 0 0 1-6.096 1.493zm3.537-20.871a4.45 4.45 0 0 0-2.77.921 7.96 7.96 0 0 0-2 2.343c-.56.964-.981 2.007-1.249 3.096a13.571 13.571 0 0 0-.4 3.19 7.976 7.976 0 0 0 .76 3.806c.513.91 1.432 1.367 2.771 1.367 1 .017 1.975-.31 2.77-.928a8.002 8.002 0 0 0 2.005-2.341c.553-.966.964-2.009 1.221-3.096.256-1.045.391-2.119.4-3.197a7.906 7.906 0 0 0-.76-3.806c-.513-.904-1.439-1.361-2.771-1.361l.024.006h-.001zM155.344 37H148l6.193-25.406h7.393L155.344 37zm3.56-28.501c-.999.01-1.973-.302-2.77-.889a3.128 3.128 0 0 1-1.225-2.731 4.4 4.4 0 0 1 .422-1.903 5.134 5.134 0 0 1 1.088-1.55 5.642 5.642 0 0 1 1.617-1.038A5.002 5.002 0 0 1 159.988 0a4.629 4.629 0 0 1 2.779.895 3.146 3.146 0 0 1 1.224 2.73c.001.66-.145 1.312-.43 1.91a5.008 5.008 0 0 1-1.107 1.544 5.42 5.42 0 0 1-1.61 1.037 4.94 4.94 0 0 1-1.94.383zM166.812 12.759c.539-.156 1.137-.346 1.777-.554.64-.209 1.386-.4 2.209-.596a26.368 26.368 0 0 1 2.732-.435c1.139-.121 2.284-.18 3.43-.174 3.743 0 6.326 1.095 7.748 3.285.851 1.311 1.282 2.91 1.292 4.8v.136c-.006 1.228-.188 2.577-.546 4.046l-3.263 13.709h-7.133l3.169-13.423c.19-.835.344-1.645.457-2.438a5.874 5.874 0 0 0 0-2.074 2.496 2.496 0 0 0-.889-1.448 3.416 3.416 0 0 0-2.139-.555c-.949.002-1.896.1-2.825.292L168.174 37H161l5.812-24.241z" fill="#FFF"/>
    </g>
</svg>
