<svg width="32" height="32" viewBox="0 0 32 32" xmlns="http://www.w3.org/2000/svg">
    <g fill="none" fill-rule="evenodd">
        <path d="M16.142 8.63c2.44 0 2.73.009 3.694.052.891.04 1.375.188 1.697.312.427.164.732.36 1.051.676.32.317.518.618.684 1.04.125.319.274.797.315 1.68.044.953.053 1.239.053 3.653 0 2.415-.009 2.701-.053 3.655-.04.882-.19 1.36-.315 1.68a2.799 2.799 0 0 1-.684 1.039c-.32.316-.624.512-1.05.676-.323.124-.807.272-1.698.312-.964.043-1.253.053-3.694.053s-2.73-.01-3.694-.053c-.892-.04-1.376-.188-1.698-.312a2.835 2.835 0 0 1-1.05-.676 2.799 2.799 0 0 1-.685-1.04c-.125-.319-.274-.797-.315-1.68-.044-.953-.053-1.239-.053-3.654 0-2.414.01-2.7.053-3.654.041-.882.19-1.36.315-1.68.166-.421.364-.722.684-1.039.32-.316.625-.512 1.051-.676.322-.124.806-.272 1.698-.312.964-.043 1.253-.053 3.694-.053m0-1.629c-2.483 0-2.794.01-3.77.054-.972.044-1.637.197-2.218.42a4.486 4.486 0 0 0-1.62 1.044A4.428 4.428 0 0 0 7.48 10.12c-.226.575-.38 1.232-.425 2.195C7.01 13.279 7 13.587 7 16.043c0 2.457.01 2.765.055 3.73.044.962.199 1.62.425 2.194a4.429 4.429 0 0 0 1.054 1.602 4.486 4.486 0 0 0 1.62 1.043c.581.224 1.246.377 2.219.42.975.045 1.286.055 3.769.055s2.794-.01 3.769-.054c.973-.044 1.637-.197 2.219-.42a4.486 4.486 0 0 0 1.62-1.044 4.428 4.428 0 0 0 1.054-1.602c.226-.575.38-1.232.425-2.195.044-.964.055-1.272.055-3.729 0-2.456-.011-2.764-.055-3.728-.045-.963-.2-1.62-.425-2.195a4.428 4.428 0 0 0-1.055-1.602 4.486 4.486 0 0 0-1.619-1.043c-.582-.224-1.246-.377-2.22-.42C18.937 7.01 18.626 7 16.143 7zm0 4.4c-2.593 0-4.695 2.079-4.695 4.643 0 2.565 2.102 4.644 4.695 4.644 2.592 0 4.694-2.079 4.694-4.644 0-2.564-2.102-4.643-4.694-4.643zm0 7.658c-1.683 0-3.048-1.35-3.048-3.015 0-1.664 1.365-3.014 3.048-3.014s3.047 1.35 3.047 3.014c0 1.665-1.364 3.015-3.047 3.015zm5.977-7.842c0 .6-.491 1.085-1.097 1.085a1.091 1.091 0 0 1-1.097-1.085c0-.6.49-1.085 1.097-1.085.606 0 1.097.486 1.097 1.085z" fill="#6F7172" fill-rule="nonzero"/>
        <circle stroke="#6F7172" cx="16" cy="16" r="15.5"/>
    </g>
</svg>
