<svg width="105" height="105" viewBox="0 0 105 105" xmlns="http://www.w3.org/2000/svg" xmlns:xlink="http://www.w3.org/1999/xlink">
    <defs>
        <linearGradient x1="-18.289%" y1="8.12%" x2="84.831%" y2="71.36%" id="9fuqoup4qb">
            <stop stop-color="#A128C4" offset="0%"/>
            <stop stop-color="#7B3FE4" offset="100%"/>
        </linearGradient>
        <path d="M52.5 0C23.604 0 0 23.646 0 52.5 0 81.396 23.646 105 52.5 105c28.896 0 52.5-23.646 52.5-52.5C105 23.604 81.354 0 52.5 0z" id="t606aoul3a"/>
    </defs>
    <g fill="none" fill-rule="evenodd">
        <g>
            <mask id="kd9n9e6foc" fill="#fff">
                <use xlink:href="#t606aoul3a"/>
            </mask>
            <path d="M52.5 0C23.604 0 0 23.646 0 52.5 0 81.396 23.646 105 52.5 105c28.896 0 52.5-23.646 52.5-52.5C105 23.604 81.354 0 52.5 0z" fill="url(#9fuqoup4qb)" mask="url(#kd9n9e6foc)"/>
        </g>
        <path d="m67.704 63.84 14.868-8.568c.798-.462 1.26-1.302 1.26-2.226V35.91a2.63 2.63 0 0 0-1.26-2.226l-14.868-8.568a2.542 2.542 0 0 0-2.562 0l-14.868 8.568c-.798.462-1.26 1.302-1.26 2.226v30.66l-10.416 6.006-10.416-6.006V54.558l10.416-6.006 6.888 3.948v-8.064L39.9 41.202a2.693 2.693 0 0 0-1.26-.336c-.462 0-.882.126-1.26.336L22.512 49.77c-.798.462-1.26 1.302-1.26 2.226v17.136c0 .924.504 1.764 1.26 2.226l14.868 8.568a2.54 2.54 0 0 0 2.562 0l14.868-8.568c.798-.462 1.26-1.302 1.26-2.226v-30.66l.168-.126 10.248-5.922 10.416 6.006v12.012l-10.416 6.006L59.64 52.5v8.064l5.586 3.234a2.542 2.542 0 0 0 2.562 0l-.084.042z" fill="#FFF"/>
    </g>
</svg>
