<svg width="32" height="32" viewBox="0 0 32 32" xmlns="http://www.w3.org/2000/svg">
    <g fill="none" fill-rule="evenodd">
        <path d="m11.893 7 5.048 6.618L23.255 7h1.854l-3.672 3.848-3.672 3.848c2.08 2.73 4.162 5.459 6.244 8.187.559.735 1.119 1.47 1.681 2.204h-5.905l-1.65-2.204c-1.2-1.6-2.398-3.204-3.6-4.805l-4.587 4.805c-.7.735-1.4 1.47-2.103 2.204H6c.7-.735 1.4-1.47 2.103-2.204l2.92-3.062 2.7-2.83-1.353-1.807-1.354-1.807L6.243 7zm4.14 7.569-1.38-1.81-1.381-1.811-2.032-2.663H8.83l5.803 7.753.814 1.085 5 6.679h2.629l-.112-.147-6.109-8.008-.822-1.078z" fill="#6F7172"/>
        <circle stroke="#6F7172" cx="16" cy="16" r="15.5"/>
    </g>
</svg>
