<svg width="78" height="78" viewBox="0 0 78 78" xmlns="http://www.w3.org/2000/svg" xmlns:xlink="http://www.w3.org/1999/xlink">
    <defs>
        <linearGradient x1="22.972%" y1="50%" x2="82.687%" y2="50%" id="jkn5dnddfb">
            <stop stop-color="#8CD903" offset="0%"/>
            <stop stop-color="#FB0401" offset="100%"/>
        </linearGradient>
        <path id="bygv1jjj6a" d="M0 0h78v78H0z"/>
    </defs>
    <g fill="none" fill-rule="evenodd">
        <g>
            <mask id="7q2dkyyd7c" fill="#fff">
                <use xlink:href="#bygv1jjj6a"/>
            </mask>
            <path d="M78 39c0 21.539-17.46 39-39 39S0 60.539 0 39C0 17.46 17.46 0 39 0s39 17.46 39 39" fill="url(#jkn5dnddfb)" mask="url(#7q2dkyyd7c)"/>
        </g>
        <path d="M46.407 33.28c-.264 1.149-.332 1.422-1.06 2.319-1.426 1.39-4.835.955-7.55.324-1.035-.24-1.918-.677-2.256-.788l1.179-5.089c.308-1.344.331-1.684.755-3.256.822.064 1.99.338 3.13.603 3.45.802 6.567 2.55 5.802 5.888m-1.474 14.325c-.512 2.236-2.821 2.584-3.545 2.689-1.6.231-4.115-.115-6.215-.603-1.11-.258-3.158-.91-3.158-.91l2.283-8.872c.775.133 2.3.232 2.9.371 4.726 1.098 8.775 2.793 7.735 7.325m5.111-8.02c.34-.06 1.29-.416 1.98-.835 1.582-1.23 2.224-2.166 2.716-4.312.301-1.313.535-3.013-.46-5.238-1.658-3.709-7.793-5.16-7.793-5.16l1.67-7.156-4.523-1.07-1.582 6.78c-.225-.059-.455-.115-.694-.163l-2.466-.524 1.596-6.838L35.966 14l-1.596 6.835c-3.188-.749-7.321-1.753-8.497-2.112l-1.059 4.498c1.51.446 4.07 1.231 4.282 1.344.407.222.945.889.92 1.344-.054 1.133-.465 1.737-1.289 5.332l-2.532 10.477-1.243 4.544c-.428 1.73-4.637-.427-4.834-.186-.132.16-2.118 4.821-2.118 4.821l4.374 1.252 3.907.984-1.507 6.93 4.523 1.148 1.51-6.948c.672.152 1.852.41 3.043.67l-1.518 6.927L36.855 63l1.552-7.083c2.904.508 7.145.652 8.967.107 4.123-1.237 5.392-3.7 6.261-7.491.968-4.222-.494-7.131-5.048-8.932.5.073.981.068 1.457-.015" fill="#FFF"/>
    </g>
</svg>
